# xmcd
#
# Track frame offsets: 
#        150
#        36879
#        59443
#        90345
#        128145
#
# Disc length: 2337 seconds
#
# Revision: 6
# Processed by: cddbd v1.5.2PL0 Copyright (c) Steve Scherf et al.
# Submitted via: ExactAudioCopyFreeDBPlugin 1.0
#
DISCID=39091f05
DTITLE=Tony Williams - Spring
DYEAR=1966
DGENRE=Jazz
TTITLE0=Extras
TTITLE1=Echo
TTITLE2=From Before
TTITLE3=Love Song
TTITLE4=Tee
EXTD=1966, 1987 Blue Note/EMI  CDP 7 46135-2\n\nRecorded August 12, 19
EXTD=65\n\nTony Williams  -drums\nWayne Shorter  -tenor sax (1, 3, 5]\n
EXTD=Sam Rivers-tenor sax (1, 3, 4, 5]\nHerbie Hancock  -piano (3, 4, 
EXTD=5]\nGary Peacock  -bass (1, 3, 4, 5]\n YEAR: 1965
EXTT0=
EXTT1=
EXTT2=
EXTT3=
EXTT4=
PLAYORDER=
